<svg width="120" height="44" viewBox="0 0 120 44" fill="none" xmlns="http://www.w3.org/2000/svg">
<g filter="url(#filter0_d_11_3)">
<path d="M23.9611 1.00461C23.4845 1.28316 22.5245 2.0631 21.8199 2.74554C20.6734 3.85974 19.7064 5.16892 18.9466 6.64523C18.7256 7.06305 18.5391 7.4182 18.5322 7.43213C18.5183 7.44606 18.3664 7.18143 18.1937 6.84021C17.1369 4.79288 15.12 3.08677 12.8683 2.33468C12.1362 2.09095 11.3695 1.95168 10.513 1.89597C9.87064 1.86115 9.79467 1.86811 9.5391 2.01435C9.37333 2.10488 9.19375 2.28594 9.10396 2.45307C8.95891 2.71072 8.952 2.78733 8.99344 3.42102C9.0487 4.26363 9.18684 4.9809 9.44931 5.78869C9.67724 6.46417 10.1055 7.37642 10.2091 7.37642C10.2436 7.37642 10.4785 7.32071 10.7409 7.25803C11.0656 7.17447 11.5145 7.13965 12.2122 7.13965C13.8008 7.13269 14.6711 7.37642 16.8054 8.40705C18.4009 9.17306 18.4078 9.17306 19.6097 8.58811L20.48 8.16332L20.8391 7.48087C21.7923 5.68423 23.0908 4.18703 24.7071 3.02409C25.3218 2.57841 25.5429 2.27201 25.5429 1.86115C25.5429 1.33887 25.0317 0.83052 24.5068 0.83052C24.3756 0.83052 24.1269 0.907121 23.9611 1.00461Z" fill="white"/>
<path d="M11.5197 9.06861C10.5561 9.22222 9.23465 9.76987 8.2573 10.4177C7.54149 10.8986 6.51596 11.9137 5.99975 12.6618C3.226 16.669 3.34989 23.1741 6.29571 28.8109C7.1767 30.4873 8.13341 31.7829 9.33101 32.9116C10.8315 34.3142 12.3388 35.0488 13.9356 35.1557C15.0506 35.2225 15.8834 35.0154 17.3081 34.3075C18.4369 33.7465 18.5677 33.7531 19.8548 34.3676C21.3139 35.0622 21.9884 35.2225 23.0897 35.1557C24.6658 35.0555 26.18 34.3208 27.6461 32.945C30.3166 30.4539 32.2093 26.5468 32.8701 22.1856C33.0421 21.0769 33.0421 18.686 32.877 17.5907C32.4709 14.9258 31.5073 12.9089 29.9036 11.3661C28.1485 9.67637 25.8221 8.78142 23.8812 9.05525C23.014 9.18214 22.5184 9.34911 21.0592 10.0303C18.7398 11.1123 18.3612 11.119 16.1656 10.0971C15.5049 9.78323 14.7271 9.45597 14.4449 9.36247C13.4607 9.03521 12.387 8.92835 11.5197 9.06861Z" fill="white"/>
</g>
<path d="M48.5233 13.9127C49.8498 13.9127 50.9325 14.3406 51.7713 15.1965C52.6101 16.0524 53.0296 17.1605 53.0296 18.5207C53.0296 19.8809 52.6069 20.9922 51.7616 21.8548C50.9162 22.7173 49.8303 23.1486 48.5038 23.1486H44.9632V28.2742H43.2075V13.9127H48.5233ZM44.9632 21.5562H48.0649C49.0663 21.5562 49.8433 21.2875 50.396 20.75C50.9488 20.2192 51.2251 19.4761 51.2251 18.5207C51.2251 17.5652 50.952 16.8254 50.4058 16.3013C49.8531 15.7705 49.0728 15.5051 48.0649 15.5051H44.9632V21.5562Z" fill="white"/>
<path d="M54.834 17.5453H56.4336V19.287H56.4726C56.6287 18.723 56.9376 18.2752 57.3992 17.9434C57.8609 17.6117 58.4006 17.4458 59.0184 17.4458C59.285 17.4458 59.5028 17.469 59.6719 17.5155V19.2273C59.4898 19.1477 59.1972 19.1079 58.794 19.1079C58.1113 19.1079 57.5651 19.3401 57.1554 19.8046C56.7392 20.269 56.5312 20.8794 56.5312 21.6358V28.2742H54.834V17.5453Z" fill="white"/>
<path d="M65.0169 28.3737C63.5409 28.3737 62.3639 27.8794 61.4861 26.8908C60.6082 25.9021 60.1693 24.5751 60.1693 22.9097C60.1693 21.2444 60.6082 19.9173 61.4861 18.9287C62.3639 17.9401 63.5409 17.4458 65.0169 17.4458C66.493 17.4458 67.6699 17.9401 68.5478 18.9287C69.4256 19.9173 69.8645 21.2444 69.8645 22.9097C69.8645 24.5751 69.4256 25.9021 68.5478 26.8908C67.6699 27.8794 66.493 28.3737 65.0169 28.3737ZM65.0169 26.831C65.9988 26.831 66.7628 26.486 67.3091 25.796C67.8618 25.0993 68.1381 24.1372 68.1381 22.9097C68.1381 21.6756 67.8618 20.7136 67.3091 20.0235C66.7628 19.3335 65.9988 18.9884 65.0169 18.9884C64.035 18.9884 63.271 19.3335 62.7248 20.0235C62.1721 20.7202 61.8957 21.6823 61.8957 22.9097C61.8957 24.1372 62.1721 25.0993 62.7248 25.796C63.2775 26.486 64.0415 26.831 65.0169 26.831Z" fill="white"/>
<path d="M79.4037 24.1638H73.8051L72.3908 28.2742H70.5473L75.7363 13.9127H77.4725L82.6615 28.2742H80.818L79.4037 24.1638ZM74.322 22.641H78.8868L76.6336 16.0923H76.5751L74.322 22.641Z" fill="white"/>
<path d="M89.1087 17.4458C90.4547 17.4458 91.5406 17.9467 92.3665 18.9486C93.1988 19.9572 93.6149 21.2775 93.6149 22.9097C93.6149 24.542 93.202 25.8623 92.3762 26.8709C91.5504 27.8727 90.4742 28.3737 89.1477 28.3737C87.6066 28.3737 86.4882 27.7599 85.7924 26.5325H85.7534V31.8571H84.0563V17.5453H85.6656V19.287H85.7046C86.0103 18.7297 86.4719 18.2818 87.0897 17.9434C87.7074 17.6117 88.3804 17.4458 89.1087 17.4458ZM88.7966 26.831C89.7264 26.831 90.471 26.4761 91.0302 25.7661C91.5959 25.0495 91.8788 24.0974 91.8788 22.9097C91.8788 21.7287 91.5959 20.7799 91.0302 20.0633C90.471 19.3467 89.7264 18.9884 88.7966 18.9884C87.8927 18.9884 87.158 19.3501 86.5922 20.0733C86.0265 20.7965 85.7437 21.742 85.7437 22.9097C85.7437 24.0775 86.0265 25.023 86.5922 25.7462C87.1515 26.4694 87.8862 26.831 88.7966 26.831Z" fill="white"/>
<path d="M100.462 17.4458C101.808 17.4458 102.894 17.9467 103.72 18.9486C104.552 19.9572 104.968 21.2775 104.968 22.9097C104.968 24.542 104.555 25.8623 103.73 26.8709C102.904 27.8727 101.828 28.3737 100.501 28.3737C98.96 28.3737 97.8416 27.7599 97.1458 26.5325H97.1068V31.8571H95.4096V17.5453H97.019V19.287H97.058C97.3636 18.7297 97.8253 18.2818 98.4431 17.9434C99.0608 17.6117 99.7338 17.4458 100.462 17.4458ZM100.15 26.831C101.08 26.831 101.824 26.4761 102.384 25.7661C102.949 25.0495 103.232 24.0974 103.232 22.9097C103.232 21.7287 102.949 20.7799 102.384 20.0633C101.824 19.3467 101.08 18.9884 100.15 18.9884C99.2461 18.9884 98.5113 19.3501 97.9456 20.0733C97.3799 20.7965 97.097 21.742 97.097 22.9097C97.097 24.0775 97.3799 25.023 97.9456 25.7462C98.5048 26.4694 99.2396 26.831 100.15 26.831Z" fill="white"/>
<path d="M106.861 13.2856H108.558V28.2742H106.861V13.2856Z" fill="white"/>
<path d="M115.151 18.9685C114.325 18.9685 113.643 19.2472 113.103 19.8046C112.557 20.3619 112.254 21.0951 112.196 22.0041H117.98C117.96 21.0951 117.69 20.3619 117.17 19.8046C116.657 19.2472 115.984 18.9685 115.151 18.9685ZM119.618 25.2088C119.475 26.131 118.994 26.8874 118.175 27.478C117.356 28.0751 116.383 28.3737 115.259 28.3737C113.782 28.3737 112.609 27.886 111.737 26.9107C110.873 25.9353 110.44 24.6149 110.44 22.9496C110.44 21.2842 110.873 19.9505 111.737 18.9486C112.602 17.9467 113.75 17.4458 115.181 17.4458C116.585 17.4458 117.697 17.9169 118.516 18.8591C119.336 19.8079 119.745 21.0917 119.745 22.7107V23.3875H112.196V23.487C112.196 24.5088 112.479 25.3249 113.044 25.9353C113.61 26.5457 114.361 26.8509 115.298 26.8509C115.954 26.8509 116.523 26.7017 117.004 26.4031C117.479 26.1111 117.791 25.713 117.941 25.2088H119.618Z" fill="white"/>
<defs>
<filter id="filter0_d_11_3" x="0" y="0.830566" width="37" height="42.339" filterUnits="userSpaceOnUse" color-interpolation-filters="sRGB">
<feFlood flood-opacity="0" result="BackgroundImageFix"/>
<feColorMatrix in="SourceAlpha" type="matrix" values="0 0 0 0 0 0 0 0 0 0 0 0 0 0 0 0 0 0 127 0" result="hardAlpha"/>
<feOffset dy="4"/>
<feGaussianBlur stdDeviation="2"/>
<feComposite in2="hardAlpha" operator="out"/>
<feColorMatrix type="matrix" values="0 0 0 0 0 0 0 0 0 0 0 0 0 0 0 0 0 0 0.25 0"/>
<feBlend mode="normal" in2="BackgroundImageFix" result="effect1_dropShadow_11_3"/>
<feBlend mode="normal" in="SourceGraphic" in2="effect1_dropShadow_11_3" result="shape"/>
</filter>
</defs>
</svg>
